<?xml version="1.0" encoding="utf-8"?>
<svg xmlns="http://www.w3.org/2000/svg" viewBox="0 0 40 40" width="480" height="480">
  <path fill="none" stroke="#5e9c76" d="M3 19L12 11 20 15 27 7 37 10" />
  <path fill="#bae0bd" d="M37 8.5A1.5 1.5 0 1 0 37 11.5A1.5 1.5 0 1 0 37 8.5Z" />
  <path fill="#5e9c76" d="M37,9c0.551,0,1,0.449,1,1s-0.449,1-1,1s-1-0.449-1-1S36.449,9,37,9 M37,8c-1.105,0-2,0.895-2,2 s0.895,2,2,2s2-0.895,2-2S38.105,8,37,8L37,8z" />
  <path fill="#bae0bd" d="M27 5.5A1.5 1.5 0 1 0 27 8.5A1.5 1.5 0 1 0 27 5.5Z" />
  <path fill="#5e9c76" d="M27,6c0.551,0,1,0.449,1,1s-0.449,1-1,1s-1-0.449-1-1S26.449,6,27,6 M27,5c-1.105,0-2,0.895-2,2 s0.895,2,2,2s2-0.895,2-2S28.105,5,27,5L27,5z" />
  <path fill="#bae0bd" d="M20 13.5A1.5 1.5 0 1 0 20 16.5A1.5 1.5 0 1 0 20 13.5Z" />
  <path fill="#5e9c76" d="M20,14c0.551,0,1,0.449,1,1s-0.449,1-1,1s-1-0.449-1-1S19.449,14,20,14 M20,13c-1.105,0-2,0.895-2,2 s0.895,2,2,2s2-0.895,2-2S21.105,13,20,13L20,13z" />
  <path fill="#bae0bd" d="M12 9.5A1.5 1.5 0 1 0 12 12.5A1.5 1.5 0 1 0 12 9.5Z" />
  <path fill="#5e9c76" d="M12,10c0.551,0,1,0.449,1,1s-0.449,1-1,1s-1-0.449-1-1S11.449,10,12,10 M12,9c-1.105,0-2,0.895-2,2 s0.895,2,2,2s2-0.895,2-2S13.105,9,12,9L12,9z" />
  <path fill="#bae0bd" d="M3 17.5A1.5 1.5 0 1 0 3 20.5A1.5 1.5 0 1 0 3 17.5Z" />
  <path fill="#5e9c76" d="M3,18c0.551,0,1,0.449,1,1s-0.449,1-1,1s-1-0.449-1-1S2.449,18,3,18 M3,17c-1.105,0-2,0.895-2,2 s0.895,2,2,2s2-0.895,2-2S4.105,17,3,17L3,17z" />
  <path fill="none" stroke="#4e7ab5" d="M3 33L12 25 20 29 28 23 37 21" />
  <g>
    <path fill="#8bb7f0" d="M37 19.5A1.5 1.5 0 1 0 37 22.5A1.5 1.5 0 1 0 37 19.5Z" />
    <path fill="#4e7ab5" d="M37,20c0.551,0,1,0.449,1,1s-0.449,1-1,1s-1-0.449-1-1S36.449,20,37,20 M37,19 c-1.105,0-2,0.895-2,2s0.895,2,2,2s2-0.895,2-2S38.105,19,37,19L37,19z" />
  </g>
  <g>
    <path fill="#8bb7f0" d="M28 21.5A1.5 1.5 0 1 0 28 24.5A1.5 1.5 0 1 0 28 21.5Z" />
    <path fill="#4e7ab5" d="M28,22c0.551,0,1,0.449,1,1s-0.449,1-1,1s-1-0.449-1-1S27.449,22,28,22 M28,21 c-1.105,0-2,0.895-2,2s0.895,2,2,2s2-0.895,2-2S29.105,21,28,21L28,21z" />
  </g>
  <g>
    <path fill="#8bb7f0" d="M20 27.5A1.5 1.5 0 1 0 20 30.5A1.5 1.5 0 1 0 20 27.5Z" />
    <path fill="#4e7ab5" d="M20,28c0.551,0,1,0.449,1,1s-0.449,1-1,1s-1-0.449-1-1S19.449,28,20,28 M20,27 c-1.105,0-2,0.895-2,2s0.895,2,2,2s2-0.895,2-2S21.105,27,20,27L20,27z" />
  </g>
  <g>
    <path fill="#8bb7f0" d="M12 23.5A1.5 1.5 0 1 0 12 26.5A1.5 1.5 0 1 0 12 23.5Z" />
    <path fill="#4e7ab5" d="M12,24c0.551,0,1,0.449,1,1s-0.449,1-1,1s-1-0.449-1-1S11.449,24,12,24 M12,23 c-1.105,0-2,0.895-2,2s0.895,2,2,2s2-0.895,2-2S13.105,23,12,23L12,23z" />
  </g>
  <g>
    <path fill="#8bb7f0" d="M3 31.5A1.5 1.5 0 1 0 3 34.5A1.5 1.5 0 1 0 3 31.5Z" />
    <path fill="#4e7ab5" d="M3,32c0.551,0,1,0.449,1,1s-0.449,1-1,1s-1-0.449-1-1S2.449,32,3,32 M3,31c-1.105,0-2,0.895-2,2 s0.895,2,2,2s2-0.895,2-2S4.105,31,3,31L3,31z" />
  </g>
</svg>