<?xml version="1.0" encoding="utf-8"?>
<svg xmlns="http://www.w3.org/2000/svg" viewBox="0 0 40 40" width="480" height="480">
  <path fill="#4e7ab5" d="M6.177 3.618v8.794H4.462V6.016c0 0-1.103.374-1.988.374V4.941c1.088-.269 2.241-.863 2.663-1.323H6.177zM1.894 37.292v-1.651c.577.42 1.249.631 2.018.631.484 0 .862-.104 1.132-.312.27-.208.405-.499.405-.872 0-.384-.167-.681-.501-.889-.335-.208-.794-.312-1.379-.312H2.771v-1.453h.739c1.121 0 1.682-.372 1.682-1.117 0-.701-.43-1.05-1.291-1.05-.577 0-1.137.186-1.682.558v-1.55c.605-.304 1.309-.456 2.114-.456.881 0 1.566.199 2.057.594.49.398.735.912.735 1.544 0 1.125-.571 1.83-1.712 2.114v.031c.609.076 1.089.296 1.441.663.352.366.529.815.529 1.348 0 .805-.294 1.441-.883 1.91s-1.401.702-2.438.702C3.173 37.725 2.45 37.58 1.894 37.292zM3.794 23.426h3.632v1.565H1.727v-.645c0-3.119 3.787-3.521 3.787-5.448 0-1.009-.834-1.111-1.26-1.111-.737 0-1.442.293-2.115.878v-1.661c.745-.482 1.585-.723 2.521-.723 2.659 0 2.778 2.061 2.778 2.431C7.438 21.505 3.794 22.247 3.794 23.426z" />
  <path fill="#36404d" d="M12 8H39V9H12zM12 20H39V21H12zM12 32H39V33H12z" />
</svg>
